PathFileType	4	(X/Y/Z)	/Users/itak/Documents/Research/Walk-IL/dataset/trc/00525_00183.trc
DataRate	CameraRate	NumFrames	NumMarkers	Units	OrigDataRate	OrigDataStartFrame	OrigNumFrames
100.000000	100.000000	4	53	mm	100.000000	69	559
Frame#	Time	RPSI			LPSI			L3			STRN			T10			C7			CLAV			RBAK			LBAK			LSHO			LUPA			LAEL			LAOL			LWTS			LWPS			LFRA			LIFD			LHPS			LHTS			RSHO			RUPA			RAEL			RAOL			RWTS			RWPS			RFRA			RIFD			RHTS			RHPS			RBHD			LFHD			RFHD			LBHD			LHIP			RHIP			RASI			LASI			LKNE			LTHI			LANK			LTIP			LTOE			LMT1			LMT5			LHEE			RKNE			RTHI			RANK			RTIP			RTOE			RMT1			RMT5			RHEE			
		X1	Y1	Z1	X2	Y2	Z2	X3	Y3	Z3	X4	Y4	Z4	X5	Y5	Z5	X6	Y6	Z6	X7	Y7	Z7	X8	Y8	Z8	X9	Y9	Z9	X10	Y10	Z10	X11	Y11	Z11	X12	Y12	Z12	X13	Y13	Z13	X14	Y14	Z14	X15	Y15	Z15	X16	Y16	Z16	X17	Y17	Z17	X18	Y18	Z18	X19	Y19	Z19	X20	Y20	Z20	X21	Y21	Z21	X22	Y22	Z22	X23	Y23	Z23	X24	Y24	Z24	X25	Y25	Z25	X26	Y26	Z26	X27	Y27	Z27	X28	Y28	Z28	X29	Y29	Z29	X30	Y30	Z30	X31	Y31	Z31	X32	Y32	Z32	X33	Y33	Z33	X34	Y34	Z34	X35	Y35	Z35	X36	Y36	Z36	X37	Y37	Z37	X38	Y38	Z38	X39	Y39	Z39	X40	Y40	Z40	X41	Y41	Z41	X42	Y42	Z42	X43	Y43	Z43	X44	Y44	Z44	X45	Y45	Z45	X46	Y46	Z46	X47	Y47	Z47	X48	Y48	Z48	X49	Y49	Z49	X50	Y50	Z50	X51	Y51	Z51	X52	Y52	Z52	X53	Y53	Z53	

70	0.6900000000000001	-1232.989135742188	973.7714233398438	-419.76123046875	-1168.049926757812	971.2837524414062	-524.833251953125	-1205.713256835938	1037.423461914062	-479.1692810058594	-998.6675415039062	1215.163452148438	-380.05712890625	-1220.0869140625	1142.712158203125	-482.2374267578125	-1187.338623046875	1374.743896484375	-464.9783325195312	-1038.565063476562	1307.557495117188	-399.6654968261719	-1260.666748046875	1251.260498046875	-404.5319519042969	-1172.058837890625	1319.435180664062	-551.2464599609375	-1058.847045898438	1369.556884765625	-583.45166015625	-1048.05517578125	1242.389282226562	-643.020263671875	-1021.028015136719	1032.569946289062	-658.2252807617188	-1113.499633789062	1022.054565429688	-621.5030517578125	-946.3111572265625	849.3587036132812	-580.272216796875	-1003.598571777344	810.1175537109375	-644.1863403320312	-1001.665283203125	950.1400756835938	-648.2305297851562	-943.8172607421875	691.3672485351562	-564.23681640625	-980.6561889648438	755.6728515625	-627.3118286132812	-928.6839599609375	770.1035766601562	-591.7462768554688	-1198.464721679688	1374.311279296875	-308.3728942871094	-1236.264404296875	1306.519409179688	-261.2166137695312	-1222.575927734375	1038.948974609375	-210.8939666748047	-1262.345581054688	1019.437194824219	-260.3517150878906	-1102.391235351562	843.7927856445312	-226.1229858398438	-1180.727661132812	817.7910766601562	-185.5180816650391	-1215.077758789062	984.867431640625	-202.0038299560547	-1093.825439453125	683.4645385742188	-218.5075225830078	-1085.128173828125	751.2930297851562	-197.9860534667969	-1154.267700195312	745.380126953125	-181.6195983886719	-1196.747924804688	1534.469970703125	-382.9132080078125	-1019.556457519531	1604.421020507812	-446.9159240722656	-1083.423217773438	1598.078857421875	-336.5645751953125	-1129.544555664062	1537.159301757812	-527.5733032226562	-1008.105224609375	897.4786376953125	-580.3410034179688	-1204.082641601562	876.0882568359375	-259.3646850585938	-1084.452392578125	920.5291137695312	-265.455810546875	-965.7631225585938	932.49169921875	-475.7192077636719	-1027.5263671875	474.1918640136719	-548.9519653320312	-1000.167724609375	631.920654296875	-559.1109619140625	-1124.556762695312	50.69971466064453	-587.3823852539062	-1058.556884765625	324.9260559082031	-568.520751953125	-974.4653930664062	38.86898803710938	-444.6409606933594	-1059.012329101562	43.67662811279297	-450.8145751953125	-1022.752990722656	46.57670211791992	-545.696533203125	-1194.244262695312	47.79070281982422	-552.341552734375	-1194.26708984375	487.4159851074219	-280.7384033203125	-1185.133056640625	747.5408935546875	-240.4191131591797	-1233.031127929688	48.26897048950195	-329.1217346191406	-1188.95703125	342.7274475097656	-295.4545593261719	-1029.925659179688	45.80612564086914	-309.8194885253906	-1081.770874023438	51.56748199462891	-364.1863708496094	-1130.005737304688	45.3365478515625	-279.8041076660156	-1266.885864257812	40.77329254150391	-391.3171997070312	
71	0.7000000000000001	-1232.890380859375	973.80615234375	-419.7806091308594	-1167.958251953125	971.3004150390625	-524.8670654296875	-1205.558227539062	1037.466918945312	-479.2195129394531	-998.4525756835938	1215.1142578125	-380.0876159667969	-1219.901977539062	1142.766235351562	-482.2580871582031	-1187.066162109375	1374.804077148438	-464.9639892578125	-1038.282836914062	1307.540161132812	-399.7190856933594	-1260.422729492188	1251.3232421875	-404.5615844726562	-1171.79638671875	1319.490234375	-551.2799682617188	-1058.530639648438	1369.521728515625	-583.5014038085938	-1047.791748046875	1242.347534179688	-643.0152587890625	-1020.894348144531	1032.511352539062	-658.2799072265625	-1113.403198242188	1022.073913574219	-621.5033569335938	-946.2296752929688	849.2938842773438	-580.3057250976562	-1003.536254882812	810.0640258789062	-644.1806640625	-1001.544738769531	950.1004028320312	-648.2418823242188	-943.7070922851562	691.2719116210938	-564.208251953125	-980.6309204101562	755.6173706054688	-627.2957763671875	-928.58642578125	769.98876953125	-591.7999267578125	-1198.203247070312	1374.352172851562	-308.3713989257812	-1235.982788085938	1306.597290039062	-261.2127075195312	-1222.333984375	1039.009155273438	-210.8996429443359	-1262.183227539062	1019.521240234375	-260.2682495117188	-1102.277587890625	843.8150634765625	-226.2026519775391	-1180.564575195312	817.8327026367188	-185.5335540771484	-1214.873657226562	984.9341430664062	-201.9859771728516	-1093.751708984375	683.4724731445312	-218.5533294677734	-1084.996948242188	751.3211669921875	-198.1056213378906	-1154.1591796875	745.41015625	-181.6207427978516	-1196.4013671875	1534.466918945312	-383.0007934570312	-1019.16943359375	1604.3837890625	-446.902099609375	-1083.032470703125	1598.037109375	-336.5785827636719	-1129.246704101562	1537.17333984375	-527.5862426757812	-1007.99072265625	897.465087890625	-580.3120727539062	-1203.97607421875	876.1002197265625	-259.4486999511719	-1084.347778320312	920.5150756835938	-265.4896240234375	-965.6532592773438	932.459228515625	-475.7140808105469	-1027.529907226562	474.1306457519531	-548.9251708984375	-1000.096740722656	631.8705444335938	-559.0524291992188	-1124.563842773438	50.70661926269531	-587.3767700195312	-1058.485717773438	324.9055480957031	-568.4547119140625	-974.4595336914062	38.86533355712891	-444.6375732421875	-1058.995239257812	43.65587997436523	-450.8173828125	-1022.753967285156	46.58022308349609	-545.69287109375	-1194.251586914062	47.7992057800293	-552.33203125	-1194.239013671875	487.4233703613281	-280.7371826171875	-1185.103881835938	747.5604248046875	-240.4342193603516	-1233.034790039062	48.26232528686523	-329.1139526367188	-1188.94921875	342.7319641113281	-295.4275207519531	-1029.932861328125	45.81892013549805	-309.8187866210938	-1081.781494140625	51.57880020141602	-364.1779174804688	-1130.01171875	45.33393859863281	-279.7945861816406	-1266.888061523438	40.77391052246094	-391.3140563964844	
72	0.71	-1232.788818359375	973.8418579101562	-419.8103332519531	-1167.8740234375	971.320068359375	-524.902099609375	-1205.406127929688	1037.508422851562	-479.2768249511719	-998.2386474609375	1215.066284179688	-380.117919921875	-1219.716430664062	1142.820190429688	-482.2749328613281	-1186.774780273438	1374.86865234375	-464.9686279296875	-1037.991333007812	1307.523071289062	-399.7681579589844	-1260.160400390625	1251.389282226562	-404.6178283691406	-1171.516723632812	1319.54931640625	-551.3378295898438	-1058.208740234375	1369.477783203125	-583.5458984375	-1047.506591796875	1242.308349609375	-643.0152587890625	-1020.743896484375	1032.4501953125	-658.3301391601562	-1113.282470703125	1022.095886230469	-621.5054931640625	-946.143798828125	849.2182006835938	-580.333740234375	-1003.458190917969	810.006103515625	-644.161865234375	-1001.41455078125	950.056640625	-648.2494506835938	-943.6190795898438	691.1864013671875	-564.1744995117188	-980.6091918945312	755.566162109375	-627.2760620117188	-928.479736328125	769.8865356445312	-591.8463745117188	-1197.942260742188	1374.392944335938	-308.3782348632812	-1235.696899414062	1306.671752929688	-261.2329406738281	-1222.10888671875	1039.073486328125	-210.9122314453125	-1262.02490234375	1019.604370117188	-260.2066345214844	-1102.171752929688	843.8346557617188	-226.2858428955078	-1180.405517578125	817.8740844726562	-185.5581970214844	-1214.68115234375	985.0018310546875	-201.97119140625	-1093.68603515625	683.4776000976562	-218.6090850830078	-1084.87890625	751.3500366210938	-198.2272338867188	-1154.058837890625	745.4404296875	-181.6317138671875	-1196.045288085938	1534.464965820312	-383.0815124511719	-1018.75390625	1604.33984375	-446.8698425292969	-1082.633178710938	1598.005126953125	-336.5825805664062	-1128.931396484375	1537.184936523438	-527.61376953125	-1007.84912109375	897.4515991210938	-580.2718505859375	-1203.883911132812	876.1132202148438	-259.5292358398438	-1084.256225585938	920.5029907226562	-265.5187683105469	-965.5365600585938	932.4221801757812	-475.6991271972656	-1027.5185546875	474.0740356445312	-548.8712768554688	-1000.012573242188	631.8223876953125	-558.9811401367188	-1124.569213867188	50.71300506591797	-587.3699340820312	-1058.425903320312	324.8782958984375	-568.3911743164062	-974.455078125	38.86002349853516	-444.634521484375	-1058.984252929688	43.63942718505859	-450.8179931640625	-1022.754699707031	46.5821533203125	-545.6902465820312	-1194.259033203125	47.80657577514648	-552.3203735351562	-1194.204956054688	487.4281921386719	-280.736328125	-1185.081665039062	747.577392578125	-240.4527435302734	-1233.037109375	48.25777053833008	-329.1084289550781	-1188.923583984375	342.7301940917969	-295.4133911132812	-1029.937744140625	45.82722854614258	-309.8177490234375	-1081.789428710938	51.58664703369141	-364.1754760742188	-1130.015502929688	45.33263778686523	-279.7877197265625	-1266.88916015625	40.77512359619141	-391.3127136230469	
73	0.72	-1232.68310546875	973.8776245117188	-419.8512573242188	-1167.793334960938	971.339111328125	-524.9401245117188	-1205.254638671875	1037.548217773438	-479.3390808105469	-998.0236206054688	1215.022216796875	-380.1482849121094	-1219.526000976562	1142.872314453125	-482.2898864746094	-1186.465942382812	1374.935668945312	-464.9936218261719	-1037.693237304688	1307.505615234375	-399.8101196289062	-1259.883422851562	1251.4580078125	-404.6950378417969	-1171.219848632812	1319.610717773438	-551.4202270507812	-1057.886962890625	1369.426147460938	-583.5845947265625	-1047.199462890625	1242.274291992188	-643.0232543945312	-1020.573181152344	1032.39013671875	-658.3721923828125	-1113.1337890625	1022.118041992188	-621.5111694335938	-946.049072265625	849.1321411132812	-580.35498046875	-1003.359680175781	809.9447021484375	-644.1295166015625	-1001.271545410156	950.0071411132812	-648.2528686523438	-943.5579223632812	691.113037109375	-564.1348876953125	-980.5811157226562	755.513671875	-627.2545166015625	-928.3783569335938	769.7980346679688	-591.8846435546875	-1197.676879882812	1374.435668945312	-308.3998718261719	-1235.406494140625	1306.7431640625	-261.2784423828125	-1221.90185546875	1039.140869140625	-210.9317474365234	-1261.869384765625	1019.685729980469	-260.1705627441406	-1102.074096679688	843.8508911132812	-226.3707427978516	-1180.251708984375	817.9153442382812	-185.5941314697266	-1214.502807617188	985.0698852539062	-201.9601593017578	-1093.628173828125	683.479736328125	-218.6744842529297	-1084.777221679688	751.3772583007812	-198.3451385498047	-1153.966918945312	745.470947265625	-181.6512603759766	-1195.68408203125	1534.464477539062	-383.147705078125	-1018.318481445312	1604.291381835938	-446.8235473632812	-1082.232421875	1597.985717773438	-336.5758361816406	-1128.594360351562	1537.1982421875	-527.6571655273438	-1007.681091308594	897.4390869140625	-580.2214965820312	-1203.807739257812	876.127197265625	-259.6019897460938	-1084.177124023438	920.49267578125	-265.5445251464844	-965.4111328125	932.3816528320312	-475.6739807128906	-1027.4814453125	474.0294799804688	-548.7835693359375	-999.913818359375	631.7774047851562	-558.8973388671875	-1124.572387695312	50.71881866455078	-587.361572265625	-1058.375244140625	324.8473510742188	-568.3310546875	-974.4523315429688	38.85308074951172	-444.6318969726562	-1058.977661132812	43.62646484375	-450.8166198730469	-1022.755981445312	46.58307266235352	-545.6878051757812	-1194.265869140625	47.81216812133789	-552.306884765625	-1194.162475585938	487.4302368164062	-280.73583984375	-1185.064086914062	747.592529296875	-240.4745330810547	-1233.03857421875	48.25534820556641	-329.1049499511719	-1188.880859375	342.7231750488281	-295.4093933105469	-1029.940795898438	45.83207321166992	-309.8166198730469	-1081.79296875	51.59083938598633	-364.1756286621094	-1130.017211914062	45.33209609985352	-279.7839660644531	-1266.889282226562	40.77679061889648	-391.3127136230469	
